<?xml version="1.0" standalone="no"?><!DOCTYPE svg PUBLIC "-//W3C//DTD SVG 1.1//EN" "http://www.w3.org/Graphics/SVG/1.1/DTD/svg11.dtd"><svg t="1624370334871" class="icon" viewBox="0 0 1024 1024" version="1.1" xmlns="http://www.w3.org/2000/svg" p-id="3931" xmlns:xlink="http://www.w3.org/1999/xlink" width="200" height="200"><defs><style type="text/css"></style></defs><path d="M650.666667 902.4c-6.4 0-12.8-2.133333-19.2-4.266667l-258.133334-128L151.466667 896c-12.8 8.533333-29.866667 8.533333-42.666667 0-12.8-8.533333-21.333333-21.333333-21.333333-36.266667V302.933333c0-14.933333 8.533333-29.866667 21.333333-36.266666L352 128c12.8-6.4 27.733333-8.533333 40.533333-2.133333l258.133334 128 224-128c12.8-8.533333 29.866667-8.533333 42.666666 0 12.8 8.533333 21.333333 21.333333 21.333334 36.266666v556.8c0 14.933333-8.533333 29.866667-21.333334 36.266667L672 896c-6.4 4.266667-14.933333 6.4-21.333333 6.4z m-277.333334-224c6.4 0 12.8 2.133333 19.2 4.266667l258.133334 128 202.666666-115.2V238.933333L672 341.333333c-12.8 6.4-27.733333 8.533333-40.533333 2.133334l-258.133334-128L170.666667 330.666667V789.333333l179.2-102.4c8.533333-6.4 14.933333-8.533333 23.466666-8.533333z" p-id="3932" fill="#ffffff"></path><path d="M373.333333 763.733333c-23.466667 0-42.666667-19.2-42.666666-42.666666V164.266667c0-23.466667 19.2-42.666667 42.666666-42.666667s42.666667 19.2 42.666667 42.666667v556.8c0 23.466667-19.2 42.666667-42.666667 42.666666zM650.666667 902.4c-23.466667 0-42.666667-19.2-42.666667-42.666667V302.933333c0-23.466667 19.2-42.666667 42.666667-42.666666s42.666667 19.2 42.666666 42.666666v556.8c0 23.466667-19.2 42.666667-42.666666 42.666667z" p-id="3933" fill="#ffffff"></path></svg>